<?xml version="1.0" standalone="no"?>
<!DOCTYPE svg PUBLIC "-//W3C//DTD SVG 20010904//EN"
 "http://www.w3.org/TR/2001/REC-SVG-20010904/DTD/svg10.dtd">
<svg version="1.0" xmlns="http://www.w3.org/2000/svg"
 width="92.000000pt" height="96.000000pt" viewBox="0 0 92.000000 96.000000"
 preserveAspectRatio="xMidYMid meet">

<g transform="translate(0.000000,96.000000) scale(0.100000,-0.100000)"
fill="#000000" stroke="none">
<path d="M405 941 c-22 -11 -101 -55 -175 -99 -116 -68 -139 -86 -165 -127
l-30 -48 0 -187 0 -187 30 -48 c27 -42 49 -58 195 -143 125 -72 174 -95 201
-95 26 0 70 20 170 78 205 118 208 120 235 178 22 48 24 64 24 217 0 153 -2
169 -24 216 -13 28 -37 60 -52 71 -69 47 -316 184 -341 188 -17 3 -44 -3 -68
-14z m213 -188 c73 -41 139 -85 147 -96 17 -24 19 -92 8 -261 -6 -101 -7 -107
-27 -104 -20 3 -21 10 -26 172 l-5 168 -128 74 -128 74 -115 -67 -115 -66 38
-22 c21 -12 71 -41 110 -64 79 -46 100 -70 84 -100 -12 -22 -265 -171 -291
-171 -20 0 -32 21 -22 37 4 5 52 36 107 68 55 32 111 64 123 72 23 14 21 16
-84 77 -59 34 -112 69 -117 78 -22 35 0 62 99 118 167 95 179 100 194 95 8 -3
75 -40 148 -82z"/>
</g>
</svg>
